<svg width="32" height="32" viewBox="0 0 32 32" fill="none" xmlns="http://www.w3.org/2000/svg">
<path d="M20.4769 7.34848L14.204 3.55503C13.6119 3.19286 12.9388 3.00144 12.2532 3.00024C10.2094 3.00024 8.33475 4.71219 8.33475 7.10496V21.3073L20.4769 13.9669C22.9083 12.4946 22.9083 8.8199 20.4769 7.34848ZM11.8484 14.4479V6.86787L18.1163 10.6566L11.8484 14.4479Z" fill="#0D47A1"/>
<path d="M23.8489 28.9844C23.8489 29.0273 11.9908 28.966 11.9908 28.966L10.9434 28.8425C9.24672 28.644 7.94425 27.1232 8.00197 25.3346C8.00197 25.2917 8.00565 25.2518 8.00811 25.2102C8.05471 24.4364 8.32608 23.6961 8.78582 23.0884C8.97253 22.8461 9.20091 22.6425 9.45916 22.4882L18.4782 17.0724C20.3414 15.9534 21.8931 15.562 22.6999 13.534C22.9974 12.7756 23.126 11.9561 23.0757 11.1378L23.0446 10.5865L23.9651 15.9204C24.083 16.8263 23.9013 17.7537 23.4211 18.5168C23.1326 18.9784 22.7475 19.3652 22.2951 19.6478L11.8295 24.8943C11.8191 24.9005 11.809 24.9074 11.7993 24.9148C11.5127 25.1292 11.6896 25.6068 12.0403 25.5867L20.7515 25.6402C22.4433 25.5416 23.8526 27.2111 23.8489 28.9844Z" fill="#0D47A1"/>
</svg>
