<svg width="21" height="20" viewBox="0 0 21 20" fill="none" xmlns="http://www.w3.org/2000/svg">
<path d="M15.3333 6.66663C15.3333 5.34054 14.8065 4.06877 13.8688 3.13109C12.9312 2.19341 11.6594 1.66663 10.3333 1.66663C9.00723 1.66663 7.73546 2.19341 6.79778 3.13109C5.8601 4.06877 5.33331 5.34054 5.33331 6.66663C5.33331 12.5 2.83331 14.1666 2.83331 14.1666H17.8333C17.8333 14.1666 15.3333 12.5 15.3333 6.66663Z" stroke="#838B98" stroke-width="1.75" stroke-linecap="round" stroke-linejoin="round"/>
<path d="M11.775 17.5C11.6285 17.7526 11.4182 17.9622 11.1652 18.1079C10.9121 18.2537 10.6253 18.3304 10.3333 18.3304C10.0413 18.3304 9.75446 18.2537 9.50144 18.1079C9.24843 17.9622 9.03814 17.7526 8.89163 17.5" stroke="#838B98" stroke-width="1.75" stroke-linecap="round" stroke-linejoin="round"/>
</svg>
