<svg width="24" height="16" viewBox="0 0 24 16" fill="none" xmlns="http://www.w3.org/2000/svg">
<path d="M21.75 7V8.75H20.25V7V6.75H20H18.25V5.25H20H20.25V5V3.25H21.75V5V5.25H22H23.75V6.75H22H21.75V7ZM1.75 14V14.25H2H14H14.25V14V13.2C14.25 12.9727 14.1925 12.7606 14.0758 12.5696C13.9622 12.3837 13.8101 12.2363 13.6214 12.1315L13.6215 12.1313L13.6118 12.1264C12.6963 11.6686 11.7705 11.3244 10.8346 11.0947C9.89865 10.865 8.95364 10.75 8 10.75C7.04636 10.75 6.10135 10.865 5.16541 11.0947C4.22953 11.3244 3.30374 11.6686 2.3882 12.1264L2.38809 12.1262L2.37859 12.1315C2.1899 12.2363 2.03778 12.3837 1.92418 12.5696C1.80747 12.7606 1.75 12.9727 1.75 13.2V14ZM14.8131 6.45891C14.3416 6.98943 13.7839 7.35454 13.1357 7.55621C13.4268 7.1443 13.6637 6.69652 13.8463 6.21341C14.1154 5.50171 14.25 4.76342 14.25 4C14.25 3.23658 14.1154 2.49829 13.8463 1.78659C13.6637 1.30348 13.4268 0.8557 13.1357 0.443792C13.7839 0.645463 14.3416 1.01057 14.8131 1.54109C15.4393 2.2455 15.75 3.06146 15.75 4C15.75 4.93854 15.4393 5.7545 14.8131 6.45891ZM18.25 15.75V13C18.25 12.3615 18.1078 11.7529 17.8243 11.1771C17.7011 10.9269 17.5609 10.6894 17.4037 10.4645C17.8843 10.6849 18.3415 10.9373 18.7755 11.2216C19.4317 11.6515 19.75 12.2363 19.75 13V15.75H18.25ZM8 7.75C6.96683 7.75 6.0886 7.38505 5.35178 6.64822C4.61495 5.9114 4.25 5.03317 4.25 4C4.25 2.96683 4.61495 2.0886 5.35178 1.35178C6.0886 0.614953 6.96683 0.25 8 0.25C9.03317 0.25 9.9114 0.614953 10.6482 1.35178C11.385 2.0886 11.75 2.96683 11.75 4C11.75 5.03317 11.385 5.9114 10.6482 6.64822C9.9114 7.38505 9.03317 7.75 8 7.75ZM0.25 15.75V13.2C0.25 12.6787 0.383462 12.2033 0.650543 11.7683C0.9187 11.3316 1.27216 11.0014 1.71335 10.7728C2.7302 10.2645 3.76197 9.88401 4.80885 9.63048C5.8562 9.37682 6.91978 9.25 8 9.25C9.08022 9.25 10.1438 9.37682 11.1912 9.63048C12.238 9.88401 13.2698 10.2645 14.2866 10.7728C14.7278 11.0014 15.0813 11.3316 15.3495 11.7683C15.6165 12.2033 15.75 12.6787 15.75 13.2V15.75H0.25ZM8 6.25C8.61683 6.25 9.1511 6.02745 9.58928 5.58928C10.0275 5.1511 10.25 4.61683 10.25 4C10.25 3.38317 10.0275 2.8489 9.58928 2.41072C9.1511 1.97255 8.61683 1.75 8 1.75C7.38317 1.75 6.8489 1.97255 6.41072 2.41072C5.97255 2.8489 5.75 3.38317 5.75 4C5.75 4.61683 5.97255 5.1511 6.41072 5.58928C6.8489 6.02745 7.38317 6.25 8 6.25Z" fill="#5D6778" stroke="#5D6778" stroke-width="0.5"/>
</svg>
