<svg width="24" height="24" viewBox="0 0 24 24" fill="none" xmlns="http://www.w3.org/2000/svg">
<path fill-rule="evenodd" clip-rule="evenodd" d="M13.002 4.99957C13.002 4.44729 12.5543 3.99957 12.002 3.99957C11.4497 3.99957 11.002 4.44729 11.002 4.99957V13.0858L8.20906 10.2929C7.81854 9.90235 7.18537 9.90235 6.79485 10.2929C6.40432 10.6834 6.40432 11.3166 6.79485 11.7071L10.5878 15.5C11.3688 16.2811 12.6352 16.2811 13.4162 15.5L17.2072 11.709C17.5977 11.3185 17.5977 10.6854 17.2072 10.2948C16.8167 9.90431 16.1835 9.90431 15.793 10.2948L13.002 13.0858V4.99957Z" fill="currentColor"/>
<path fill-rule="evenodd" clip-rule="evenodd" d="M4 14C4.55228 14 5 14.4477 5 15V17C5 17.5523 5.44772 18 6 18H18C18.5523 18 19 17.5523 19 17V15C19 14.4477 19.4477 14 20 14C20.5523 14 21 14.4477 21 15V17C21 18.6569 19.6569 20 18 20H6C4.34315 20 3 18.6569 3 17V15C3 14.4477 3.44772 14 4 14Z" fill="currentColor"/>
</svg>
