<svg width="25" height="24" viewBox="0 0 25 24" fill="none" xmlns="http://www.w3.org/2000/svg">
<g clip-path="url(#clip0_117_277)">
<path fill-rule="evenodd" clip-rule="evenodd" d="M13 4.79999C11.5088 4.79999 10.3 6.00882 10.3 7.49998C10.3 8.99114 11.5088 10.2 13 10.2C14.4911 10.2 15.7 8.99114 15.7 7.49998C15.7 6.00882 14.4911 4.79999 13 4.79999ZM8.5 7.49998C8.5 5.01472 10.5147 3 13 3C15.4853 3 17.5 5.01472 17.5 7.49998C17.5 9.98528 15.4853 12 13 12C10.5147 12 8.5 9.98528 8.5 7.49998Z" fill="currentColor"/>
<path fill-rule="evenodd" clip-rule="evenodd" d="M11.3275 14.8462C9.5978 14.8462 8.19567 16.3728 8.19567 18.2559C8.19567 18.2926 8.19851 18.3222 8.20231 18.3444C8.20282 18.3474 8.20333 18.3501 8.20383 18.3526C8.65664 18.6255 9.93801 19.1538 13 19.1538C16.062 19.1538 17.3434 18.6255 17.7963 18.3526C17.7967 18.3501 17.7972 18.3474 17.7977 18.3444C17.8015 18.3222 17.8044 18.2926 17.8044 18.2559C17.8044 16.3728 16.4022 14.8462 14.6726 14.8462H11.3275ZM6.5 18.2559C6.5 15.3531 8.66132 13 11.3275 13H14.6726C17.3387 13 19.5 15.3531 19.5 18.2559C19.5 18.7738 19.3389 19.5077 18.6983 19.9176C17.92 20.4157 16.3137 21 13 21C9.68631 21 8.08007 20.4157 7.30175 19.9176C6.6612 19.5077 6.5 18.7738 6.5 18.2559Z" fill="currentColor"/>
<path fill-rule="evenodd" clip-rule="evenodd" d="M18.8154 4.68244C18.939 4.19032 19.4096 3.89919 19.8665 4.0322C21.4307 4.48746 22.5 6.14169 22.5 8.00009C22.5 9.9642 21.2483 11.7619 19.4594 11.9933C18.9894 12.0541 18.5626 11.6931 18.5062 11.187C18.4497 10.6809 18.785 10.2213 19.255 10.1604C20.0374 10.0592 20.7858 9.19595 20.7858 8.00009C20.7858 6.86484 20.1407 6.02435 19.4192 5.81434C18.9623 5.68134 18.692 5.17457 18.8154 4.68244Z" fill="currentColor"/>
<path fill-rule="evenodd" clip-rule="evenodd" d="M20.516 13.7719C20.6066 13.2546 21.0567 12.9169 21.5213 13.0178C23.2514 13.3935 24.5 15.0815 24.5 17.0444V17.5603C24.5 18.0503 24.3681 18.7905 23.7538 19.2277C23.3698 19.501 22.788 19.7826 21.9081 19.9809C21.4442 20.0854 20.992 19.7513 20.8981 19.2346C20.8043 18.7179 21.1042 18.2142 21.5682 18.1098C22.2207 17.9627 22.5894 17.7779 22.7794 17.6541L22.7796 17.6524C22.7832 17.6294 22.7857 17.5987 22.7857 17.5603V17.0444C22.7857 15.9948 22.1182 15.0924 21.1931 14.8915C20.7286 14.7906 20.4254 14.2893 20.516 13.7719Z" fill="currentColor"/>
<path fill-rule="evenodd" clip-rule="evenodd" d="M7.18451 11.3176C7.06101 11.8097 6.59043 12.1008 6.13345 11.9678C4.56929 11.5126 3.5 9.85834 3.5 7.99995C3.5 6.03584 4.75167 4.23809 6.54056 4.00668C7.01057 3.94588 7.43734 4.3069 7.4938 4.81305C7.55025 5.3192 7.21501 5.77879 6.74502 5.83959C5.96254 5.94081 5.21424 6.80408 5.21424 7.99995C5.21424 9.1352 5.85921 9.97574 6.58071 10.1857C7.03769 10.3186 7.30803 10.8255 7.18451 11.3176Z" fill="currentColor"/>
<path fill-rule="evenodd" clip-rule="evenodd" d="M5.48399 13.7719C5.39338 13.2546 4.94328 12.9169 4.47867 13.0178C2.74862 13.3935 1.5 15.0815 1.5 17.0444V17.5603C1.5 18.0503 1.6319 18.7905 2.24618 19.2277C2.63015 19.501 3.21206 19.7826 4.09182 19.9809C4.55579 20.0854 5.00801 19.7513 5.10188 19.2346C5.19575 18.7179 4.89573 18.2142 4.43176 18.1098C3.77925 17.9627 3.41061 17.7779 3.22064 17.6541L3.22039 17.6524C3.21684 17.6294 3.21421 17.5987 3.21421 17.5603V17.0444C3.21421 15.9948 3.8818 15.0924 4.8068 14.8915C5.27142 14.7906 5.5746 14.2893 5.48399 13.7719Z" fill="currentColor"/>
</g>
<defs>
<clipPath id="clip0_117_277">
<rect width="24" height="24" fill="white" transform="translate(0.5)"/>
</clipPath>
</defs>
</svg>
