<svg width="24" height="24" viewBox="0 0 24 24" fill="none" xmlns="http://www.w3.org/2000/svg">
<path d="M13.1636 7.13565C13.3581 7.79374 13.7174 8.38113 14.1935 8.85009L10.8366 10.8643C10.6421 10.2062 10.2828 9.6188 9.80664 9.14985L13.1636 7.13565Z" fill="currentColor"/>
<path d="M9.80664 14.8501L13.1636 16.8643C13.3581 16.2062 13.7173 15.6188 14.1935 15.1499L10.8366 13.1357C10.6421 13.7938 10.2828 14.3812 9.80664 14.8501Z" fill="currentColor"/>
<path fill-rule="evenodd" clip-rule="evenodd" d="M17 8C18.1046 8 19 7.10457 19 6C19 4.89543 18.1046 4 17 4C15.8954 4 15 4.89543 15 6C15 7.10457 15.8954 8 17 8ZM21 6C21 8.20914 19.2091 10 17 10C14.7909 10 13 8.20914 13 6C13 3.79086 14.7909 2 17 2C19.2091 2 21 3.79086 21 6Z" fill="currentColor"/>
<path fill-rule="evenodd" clip-rule="evenodd" d="M17 20C18.1046 20 19 19.1046 19 18C19 16.8954 18.1046 16 17 16C15.8954 16 15 16.8954 15 18C15 19.1046 15.8954 20 17 20ZM21 18C21 20.2091 19.2091 22 17 22C14.7909 22 13 20.2091 13 18C13 15.7909 14.7909 14 17 14C19.2091 14 21 15.7909 21 18Z" fill="currentColor"/>
<path fill-rule="evenodd" clip-rule="evenodd" d="M7 14C8.10457 14 9 13.1046 9 12C9 10.8954 8.10457 10 7 10C5.89543 10 5 10.8954 5 12C5 13.1046 5.89543 14 7 14ZM11 12C11 14.2091 9.20914 16 7 16C4.79086 16 3 14.2091 3 12C3 9.79086 4.79086 8 7 8C9.20914 8 11 9.79086 11 12Z" fill="currentColor"/>
</svg>
