<svg width="24" height="24" viewBox="0 0 24 24" fill="none" xmlns="http://www.w3.org/2000/svg">
<path fill-rule="evenodd" clip-rule="evenodd" d="M12 2C12.5523 2 13 2.44772 13 3V5C13 5.55228 12.5523 6 12 6C11.4477 6 11 5.55228 11 5V3C11 2.44772 11.4477 2 12 2Z" fill="currentColor"/>
<path fill-rule="evenodd" clip-rule="evenodd" d="M12 18C12.5523 18 13 18.4477 13 19V21C13 21.5523 12.5523 22 12 22C11.4477 22 11 21.5523 11 21V19C11 18.4477 11.4477 18 12 18Z" fill="currentColor"/>
<path fill-rule="evenodd" clip-rule="evenodd" d="M4.92879 4.92894C5.31931 4.53842 5.95248 4.53842 6.343 4.92894L7.75721 6.34315C8.14774 6.73368 8.14774 7.36684 7.75721 7.75737C7.36669 8.14789 6.73352 8.14789 6.343 7.75737L4.92879 6.34315C4.53826 5.95263 4.53826 5.31946 4.92879 4.92894Z" fill="currentColor"/>
<path fill-rule="evenodd" clip-rule="evenodd" d="M16.2428 16.2426C16.6333 15.8521 17.2664 15.8521 17.657 16.2426L19.0712 17.6568C19.4617 18.0474 19.4617 18.6805 19.0712 19.0711C18.6807 19.4616 18.0475 19.4616 17.657 19.0711L16.2428 17.6568C15.8522 17.2663 15.8522 16.6332 16.2428 16.2426Z" fill="currentColor"/>
<path fill-rule="evenodd" clip-rule="evenodd" d="M2 12C2 11.4477 2.44772 11 3 11L5 11C5.55228 11 6 11.4477 6 12C6 12.5523 5.55228 13 5 13L3 13C2.44772 13 2 12.5523 2 12Z" fill="currentColor"/>
<path fill-rule="evenodd" clip-rule="evenodd" d="M18 12C18 11.4477 18.4477 11 19 11L21 11C21.5523 11 22 11.4477 22 12C22 12.5523 21.5523 13 21 13L19 13C18.4477 13 18 12.5523 18 12Z" fill="currentColor"/>
<path fill-rule="evenodd" clip-rule="evenodd" d="M4.92912 19.0711C4.5386 18.6805 4.5386 18.0474 4.92912 17.6568L6.34334 16.2426C6.73386 15.8521 7.36703 15.8521 7.75755 16.2426C8.14808 16.6332 8.14808 17.2663 7.75755 17.6568L6.34334 19.0711C5.95281 19.4616 5.31965 19.4616 4.92912 19.0711Z" fill="currentColor"/>
<path fill-rule="evenodd" clip-rule="evenodd" d="M16.2426 7.75737C15.8521 7.36685 15.8521 6.73368 16.2426 6.34316L17.6568 4.92894C18.0473 4.53842 18.6805 4.53842 19.071 4.92894C19.4616 5.31947 19.4616 5.95263 19.071 6.34316L17.6568 7.75737C17.2663 8.1479 16.6331 8.1479 16.2426 7.75737Z" fill="currentColor"/>
</svg>
