<svg width="24" height="24" viewBox="0 0 24 24" fill="none" xmlns="http://www.w3.org/2000/svg">
<path fill-rule="evenodd" clip-rule="evenodd" d="M9.09389 3.53021C8.91164 4.07694 8.49567 4.50673 7.99216 4.78709C7.91384 4.83069 7.83631 4.87554 7.75959 4.9216C7.26489 5.21857 6.68404 5.36439 6.11876 5.24871L4.91699 5.00278C4.0736 4.8302 3.2144 5.21665 2.78397 5.96218L2.16299 7.03775C1.73256 7.78328 1.82748 8.72059 2.39864 9.36469L3.21367 10.2838C3.59558 10.7145 3.76063 11.2889 3.75151 11.8644C3.75008 11.9548 3.75008 12.0452 3.75151 12.1355C3.76063 12.7111 3.59557 13.2854 3.21366 13.7161L2.39864 14.6352C1.82748 15.2793 1.73256 16.2167 2.16299 16.9622L2.78397 18.0378C3.2144 18.7833 4.0736 19.1697 4.91699 18.9971L6.11868 18.7512C6.68396 18.6356 7.26483 18.7814 7.75952 19.0784C7.83627 19.1244 7.91382 19.1693 7.99216 19.2129C8.49567 19.4933 8.91164 19.9231 9.09389 20.4698L9.48144 21.6325C9.75367 22.4491 10.5179 23 11.3788 23H12.6208C13.4816 23 14.2459 22.4491 14.5181 21.6325L14.9057 20.4698C15.0879 19.9231 15.5039 19.4933 16.0074 19.2129C16.0858 19.1693 16.1633 19.1244 16.24 19.0784C16.7347 18.7814 17.3156 18.6356 17.8809 18.7512L19.0825 18.9971C19.9259 19.1697 20.7851 18.7833 21.2156 18.0378L21.8365 16.9622C22.267 16.2167 22.172 15.2793 21.6009 14.6352L20.7859 13.7162C20.404 13.2855 20.2389 12.7111 20.2481 12.1356C20.2495 12.0452 20.2495 11.9548 20.2481 11.8644C20.2389 11.2888 20.404 10.7144 20.7859 10.2838L21.6009 9.36469C22.172 8.72059 22.267 7.78328 21.8365 7.03775L21.2156 5.96218C20.7851 5.21666 19.9259 4.8302 19.0825 5.00279L17.8808 5.2487C17.3155 5.36438 16.7347 5.21857 16.24 4.92159C16.1633 4.87554 16.0857 4.83069 16.0074 4.78709C15.5039 4.50673 15.0879 4.07694 14.9057 3.53021L14.5181 2.36754C14.2459 1.55086 13.4816 1 12.6208 1H11.3788C10.5179 1 9.75367 1.55086 9.48144 2.36754L9.09389 3.53021ZM14.9999 12C14.9999 13.6569 13.6567 15 11.9999 15C10.343 15 8.99985 13.6569 8.99985 12C8.99985 10.3431 10.343 9 11.9999 9C13.6567 9 14.9999 10.3431 14.9999 12Z" fill="currentColor"/>
</svg>
