<svg width="25" height="24" viewBox="0 0 25 24" fill="none" xmlns="http://www.w3.org/2000/svg">
<path d="M7 4C5.61929 4 4.5 5.11929 4.5 6.5V7C4.5 7.55228 4.05228 8 3.5 8C2.94772 8 2.5 7.55228 2.5 7V6.5C2.5 4.01472 4.51472 2 7 2H7.5C8.05228 2 8.5 2.44772 8.5 3C8.5 3.55228 8.05228 4 7.5 4H7Z" fill="currentColor"/>
<path fill-rule="evenodd" clip-rule="evenodd" d="M11.4598 6C10.794 5.99998 10.2344 5.99997 9.77657 6.03738C9.29785 6.07649 8.84289 6.16143 8.41103 6.38148C7.75247 6.71703 7.21703 7.25247 6.88148 7.91103C6.66143 8.34289 6.57649 8.79785 6.53738 9.27657C6.51958 9.49452 6.51025 9.73549 6.50536 10H4.5C3.94772 10 3.5 10.4477 3.5 11C3.5 11.5523 3.94772 12 4.5 12H20.5C21.0523 12 21.5 11.5523 21.5 11C21.5 10.4477 21.0523 10 20.5 10H18.4946C18.4898 9.73549 18.4804 9.49451 18.4626 9.27657C18.4235 8.79785 18.3386 8.34289 18.1185 7.91103C17.783 7.25247 17.2475 6.71703 16.589 6.38148C16.1571 6.16143 15.7021 6.07649 15.2234 6.03738C14.7656 5.99997 14.206 5.99998 13.5402 6H11.4598ZM16.4943 10C16.49 9.7843 16.4825 9.60112 16.4693 9.43944C16.4403 9.0844 16.389 8.92194 16.3365 8.81901C16.1927 8.53677 15.9632 8.3073 15.681 8.16349C15.5781 8.11105 15.4156 8.05975 15.0606 8.03074C14.6938 8.00078 14.2166 8 13.5 8H11.5C10.7834 8 10.3061 8.00078 9.93944 8.03074C9.5844 8.05975 9.42194 8.11105 9.31901 8.16349C9.03677 8.3073 8.8073 8.53677 8.66349 8.81901C8.61105 8.92194 8.55975 9.0844 8.53074 9.43944C8.51753 9.60112 8.50999 9.7843 8.50569 10H16.4943Z" fill="currentColor"/>
<path d="M14.5757 18H11.4598C10.7941 18 10.2344 18 9.77657 17.9626C9.29785 17.9235 8.84289 17.8386 8.41103 17.6185C7.75247 17.283 7.21703 16.7475 6.88148 16.089C6.84482 16.017 6.82528 15.9835 6.79997 15.9401C6.78429 15.9132 6.76639 15.8825 6.74083 15.8365C6.67247 15.7135 6.59846 15.5585 6.55426 15.342C6.51816 15.1651 6.50895 14.9784 6.50455 14.795C6.5 14.6058 6.5 14.3522 6.5 14.0159V14C6.5 13.4477 6.94772 13 7.5 13C8.05229 13 8.5 13.4477 8.5 14C8.5 14.3558 8.50007 14.5848 8.50397 14.7469C8.5058 14.823 8.50837 14.872 8.51047 14.9021C8.54313 14.9585 8.60631 15.0688 8.66349 15.181C8.8073 15.4632 9.03677 15.6927 9.31901 15.8365C9.42194 15.889 9.5844 15.9403 9.93944 15.9693C10.3061 15.9992 10.7834 16 11.5 16H14.5C15.0027 16 15.1376 15.9969 15.2347 15.9815C15.8765 15.8799 16.3799 15.3765 16.4815 14.7347C16.4969 14.6376 16.5 14.5027 16.5 14C16.5 13.4477 16.9477 13 17.5 13C18.0523 13 18.5 13.4477 18.5 14V14.0757C18.5002 14.4657 18.5003 14.7734 18.4569 15.0475C18.2197 16.5451 17.0451 17.7197 15.5475 17.9569C15.2734 18.0003 14.9657 18.0002 14.5757 18Z" fill="currentColor"/>
<path d="M22.5 17C22.5 16.4477 22.0523 16 21.5 16C20.9477 16 20.5 16.4477 20.5 17V17.5C20.5 18.8807 19.3807 20 18 20H17.5C16.9477 20 16.5 20.4477 16.5 21C16.5 21.5523 16.9477 22 17.5 22H18C20.4853 22 22.5 19.9853 22.5 17.5V17Z" fill="currentColor"/>
<path d="M16.5 3C16.5 2.44772 16.9477 2 17.5 2H18C20.4853 2 22.5 4.01472 22.5 6.5V7C22.5 7.55228 22.0523 8 21.5 8C20.9477 8 20.5 7.55228 20.5 7V6.5C20.5 5.11929 19.3807 4 18 4H17.5C16.9477 4 16.5 3.55228 16.5 3Z" fill="currentColor"/>
<path d="M4.5 17C4.5 16.4477 4.05228 16 3.5 16C2.94772 16 2.5 16.4477 2.5 17V17.5C2.5 19.9853 4.51472 22 7 22H7.5C8.05228 22 8.5 21.5523 8.5 21C8.5 20.4477 8.05228 20 7.5 20H7C5.61929 20 4.5 18.8807 4.5 17.5V17Z" fill="currentColor"/>
</svg>
