<svg width="24" height="24" viewBox="0 0 24 24" fill="none" xmlns="http://www.w3.org/2000/svg">
<path fill-rule="evenodd" clip-rule="evenodd" d="M9.39335 4.57367C10.5442 2.55418 13.4554 2.55418 14.6063 4.57367L21.4113 16.5146C22.551 18.5146 21.1067 21 18.8048 21H5.19485C2.89293 21 1.44865 18.5146 2.58839 16.5146L9.39335 4.57367ZM11.9998 14C12.5521 14 12.9998 13.5523 12.9998 13V8.00001C12.9998 7.44773 12.5521 7.00001 11.9998 7.00001C11.4475 7.00001 10.9998 7.44773 10.9998 8.00001V13C10.9998 13.5523 11.4475 14 11.9998 14ZM11.9998 18C12.5521 18 12.9998 17.5523 12.9998 17C12.9998 16.4477 12.5521 16 11.9998 16C11.4475 16 10.9998 16.4477 10.9998 17C10.9998 17.5523 11.4475 18 11.9998 18Z" fill="currentColor"/>
</svg>
